<?xml version="1.0" encoding="UTF-8"?>
<svg version="1.1" xmlns="http://www.w3.org/2000/svg" width="214" height="235">
<path d="M0 0 C5.65342737 4.39711018 9.9125748 9.20582512 10.8984375 16.4765625 C10.865432 23.01165075 9.62264892 29.43982319 8.4609375 35.8515625 C8.27785034 36.86851196 8.27785034 36.86851196 8.09106445 37.90600586 C6.65090664 45.4432367 6.65090664 45.4432367 4.8984375 48.4765625 C0.64516859 51.03623893 -2.53577078 51.85391786 -7.47070312 51.86474609 C-8.71219116 51.87420258 -9.9536792 51.88365906 -11.23278809 51.8934021 C-12.57446617 51.88803186 -13.91614131 51.88187878 -15.2578125 51.875 C-16.64734042 51.87702346 -18.0368673 51.87993717 -19.4263916 51.88369751 C-22.33140219 51.88810809 -25.2361351 51.88173106 -28.14111328 51.86767578 C-31.85333615 51.85058423 -35.56490821 51.86043228 -39.27710724 51.87839317 C-42.1442754 51.88926555 -45.01129083 51.88576895 -47.87846375 51.8780098 C-49.24672016 51.87601731 -50.61499071 51.87843346 -51.98323059 51.88544846 C-53.89962476 51.89311907 -55.81606795 51.87934307 -57.73242188 51.86474609 C-58.82018921 51.86235931 -59.90795654 51.85997253 -61.02868652 51.85751343 C-65.43533286 51.31121217 -68.83462739 49.79937427 -71.91723633 46.58081055 C-73.23132984 44.24599876 -73.6873656 42.45740132 -74.05078125 39.80859375 C-74.17646484 38.91462891 -74.30214844 38.02066406 -74.43164062 37.09960938 C-74.54958984 36.17212891 -74.66753906 35.24464844 -74.7890625 34.2890625 C-74.91861328 33.38091797 -75.04816406 32.47277344 -75.18164062 31.53710938 C-76.55263903 21.40332754 -77.41613484 13.10552561 -71.1015625 4.4765625 C-54.3630818 -11.82634436 -19.35247292 -12.08602715 0 0 Z " fill="#054989" transform="translate(150.1015625,123.5234375)"/>
<path d="M0 0 C6.60767927 3.79251045 11.1536884 8.63716149 13.6875 15.875 C15.43035921 22.98804416 14.87607594 29.19965286 11.5625 35.75 C7.91041822 41.71365956 3.3359588 45.75762041 -3.3125 48 C-11.77543613 49.57202584 -18.82876551 49.36778845 -26.24609375 44.8125 C-32.22014958 40.29020397 -35.73268017 34.19097844 -36.7578125 26.78125 C-37.03994321 18.73112032 -36.00591403 12.10201298 -30.51171875 6 C-21.82539859 -2.09598772 -11.16221195 -5.03660783 0 0 Z " fill="#054989" transform="translate(128.3125,62)"/>
<path d="M0 0 C4.01010605 4.19777111 4.98301838 7.52064425 4.8984375 13.28515625 C4.4845799 29.73599597 4.4845799 29.73599597 0.2109375 35.28515625 C-4.15559136 39.23582522 -8.34087165 38.79964048 -14.0234375 38.7578125 C-14.75024719 38.75639755 -15.47705688 38.7549826 -16.22589111 38.75352478 C-18.53865744 38.74794417 -20.85132562 38.73539529 -23.1640625 38.72265625 C-24.73567568 38.71763874 -26.30729039 38.71307627 -27.87890625 38.70898438 C-31.72399593 38.6979811 -35.5690126 38.68072986 -39.4140625 38.66015625 C-39.39311523 37.97501953 -39.37216797 37.28988281 -39.35058594 36.58398438 C-39.26680851 33.44286103 -39.21520836 30.30197361 -39.1640625 27.16015625 C-39.13054687 26.0825 -39.09703125 25.00484375 -39.0625 23.89453125 C-38.96542269 15.93419165 -39.97254682 10.39231816 -45.44921875 4.453125 C-46.45275391 3.65841797 -46.45275391 3.65841797 -47.4765625 2.84765625 C-49.91823124 0.87463794 -52.233607 -1.07787589 -54.4140625 -3.33984375 C-52.89759429 -3.99586119 -51.37560075 -4.63911015 -49.8515625 -5.27734375 C-49.00464844 -5.63699219 -48.15773437 -5.99664062 -47.28515625 -6.3671875 C-32.35024072 -11.42677113 -12.49224903 -9.79195939 0 0 Z " fill="#084B8A" transform="translate(202.4140625,121.33984375)"/>
<path d="M0 0 C0 0.99 0 1.98 0 3 C-1.609375 4.39453125 -1.609375 4.39453125 -3.75 5.8125 C-9.57835228 10.04474874 -11.96001152 13.83914544 -13.3125 20.9375 C-13.96856982 25.5699234 -13.87113098 29.38300581 -13 34 C-12.95823547 35.56850851 -12.94666089 37.13803176 -12.9609375 38.70703125 C-12.96939697 39.91516479 -12.96939697 39.91516479 -12.97802734 41.14770508 C-12.98527832 41.7589624 -12.9925293 42.37021973 -13 43 C-17.25043623 42.90555439 -21.50037312 42.79927469 -25.75024414 42.68261719 C-27.1922218 42.64463229 -28.63428442 42.60972976 -30.07641602 42.578125 C-50.88345223 42.11654777 -50.88345223 42.11654777 -55 38 C-55.87423272 34.68127194 -56.26564723 31.27008226 -56.75 27.875 C-56.90082031 26.94945312 -57.05164063 26.02390625 -57.20703125 25.0703125 C-58.18987688 18.31444154 -58.07666661 13.08610301 -54.9140625 6.86328125 C-42.53316998 -8.03130764 -16.2806554 -6.65486644 0 0 Z " fill="#074A89" transform="translate(85,117)"/>
<path d="M0 0 C3.8531967 2.86295209 6.89718542 5.63818728 8.1875 10.375 C9.1351389 17.50051557 9.15585173 23.80229299 4.75 29.72265625 C-0.0978165 34.8492222 -4.45598777 37.0277746 -11.4375 37.75 C-17.95619499 37.66454894 -23.78458576 34.40291424 -28.3125 29.875 C-31.8087937 24.04784383 -32.62780078 19.13477228 -31.8125 12.375 C-29.99031953 6.18831542 -26.18551265 1.83962761 -20.8125 -1.625 C-13.4210625 -4.77320486 -6.78120455 -4.16448358 0 0 Z " fill="#0A4B8A" transform="translate(184.8125,70.625)"/>
<path d="M0 0 C4.12391599 3.4987975 6.44494252 7.74922252 7 13.1015625 C7.23990965 20.30807929 6.55323215 24.97517002 1.7265625 30.46484375 C-2.76263887 34.83893739 -6.96630259 36.24157263 -13.1484375 36.83984375 C-18.87500423 36.64350432 -23.18981433 34.46399571 -27.296875 30.5234375 C-32.16811385 25.12530955 -33.65281695 21.37196174 -33.546875 14.09375 C-32.93622933 8.22282801 -30.22050522 4.06160284 -25.9609375 0.08984375 C-17.75865167 -6.30132164 -8.30775856 -5.70951535 0 0 Z " fill="#094C8A" transform="translate(75.2734375,71.53515625)"/>
<path d="M0 0 C0.82693359 0.00451172 1.65386719 0.00902344 2.50585938 0.01367188 C4.52477146 0.02534189 6.54364574 0.04327282 8.5625 0.0625 C9.0575 1.0525 9.0575 1.0525 9.5625 2.0625 C8.48871094 2.12308594 7.41492188 2.18367188 6.30859375 2.24609375 C4.87238685 2.33057651 3.43618942 2.41522054 2 2.5 C1.29552734 2.53931641 0.59105469 2.57863281 -0.13476562 2.61914062 C-4.6173541 2.88768279 -9.00043497 3.36866197 -13.4375 4.0625 C-14.0975 5.7125 -14.7575 7.3625 -15.4375 9.0625 C-20.24746915 9.0625 -22.36633001 8.70325891 -26.4375 6.0625 C-18.97293859 -0.25366735 -9.29851576 -0.09740589 0 0 Z " fill="#0E4C8C" transform="translate(174.4375,112.9375)"/>
<path d="M0 0 C0.99 0 1.98 0 3 0 C2.84402344 0.92941406 2.68804687 1.85882813 2.52734375 2.81640625 C2.33269531 4.05261719 2.13804688 5.28882813 1.9375 6.5625 C1.74027344 7.78066406 1.54304688 8.99882812 1.33984375 10.25390625 C0.99132235 14.09565369 1.4101143 17.20080612 2 21 C2 23.97 2 26.94 2 30 C-8.23 29.67 -18.46 29.34 -29 29 C-29 28.67 -29 28.34 -29 28 C-19.76 27.34 -10.52 26.68 -1 26 C-1.03940877 19.31404522 -1.03940877 19.31404522 -1.09008789 12.62817383 C-1.09258545 11.78794678 -1.09508301 10.94771973 -1.09765625 10.08203125 C-1.10551147 8.80162964 -1.10551147 8.80162964 -1.11352539 7.49536133 C-0.99579323 4.90753253 -0.57107044 2.52338047 0 0 Z " fill="#47709A" transform="translate(70,130)"/>
<path d="M0 0 C5.29876981 2.38044087 8.63508826 6.0688766 11.0859375 11.33203125 C13.12008265 17.25717883 13.56393285 22.88537532 12 29 C11.34 29.66 10.68 30.32 10 31 C8.79779797 27.46905698 9.20467651 24.87101018 9.9375 21.25 C10.13214844 20.26515625 10.32679688 19.2803125 10.52734375 18.265625 C10.68332031 17.51796875 10.83929688 16.7703125 11 16 C10.34 16 9.68 16 9 16 C9 14.68 9 13.36 9 12 C8.01 12.33 7.02 12.66 6 13 C6.12375 12.29875 6.2475 11.5975 6.375 10.875 C5.874548 7.03820131 4.14030986 5.81291073 1.3125 3.33203125 C0 2 0 2 0 0 Z " fill="#306090" transform="translate(130,64)"/>
<path d="M0 0 C0.82693359 0.00451172 1.65386719 0.00902344 2.50585938 0.01367188 C4.52477146 0.02534189 6.54364574 0.04327282 8.5625 0.0625 C8.8925 0.7225 9.2225 1.3825 9.5625 2.0625 C7.96921875 2.15337891 7.96921875 2.15337891 6.34375 2.24609375 C4.91662842 2.33008176 3.4895474 2.41476089 2.0625 2.5 C1.33015137 2.54366699 0.59780273 2.58733398 -0.15673828 2.63232422 C-3.89870868 2.8662494 -7.59854107 3.15594826 -11.3125 3.6875 C-14.4375 4.0625 -14.4375 4.0625 -16.4375 3.0625 C-16.4375 2.4025 -16.4375 1.7425 -16.4375 1.0625 C-10.91041389 0.12029874 -5.59991648 -0.05866149 0 0 Z " fill="#32608E" transform="translate(174.4375,112.9375)"/>
<path d="M0 0 C3.4015066 1.7007533 6.2113126 3.58332621 8.28515625 6.83984375 C9.97671116 11.95148234 9.26194088 17.68842102 9 23 C8.34 23.33 7.68 23.66 7 24 C6.95101562 22.92878906 6.90203125 21.85757813 6.8515625 20.75390625 C6.77654706 19.35674361 6.7009987 17.9596095 6.625 16.5625 C6.5940625 15.85544922 6.563125 15.14839844 6.53125 14.41992188 C6.42719371 12.60760812 6.22080108 10.80182012 6 9 C5.34 8.67 4.68 8.34 4 8 C2.25160484 5.34243936 1.00872518 3.02617555 0 0 Z " fill="#456E96" transform="translate(198,119)"/>
<path d="M0 0 C2.67484508 8.02453523 0.74629375 16.93898331 -1 25 C-1.33 25 -1.66 25 -2 25 C-4.1440678 8.1154661 -4.1440678 8.1154661 0 0 Z " fill="#436E9C" transform="translate(77,131)"/>
<path d="M0 0 C-3.54992246 1.9670566 -5.95784838 2 -10 2 C-10.66 2.66 -11.32 3.32 -12 4 C-14.32671854 4.68939809 -16.66067594 5.35466922 -19 6 C-20.35350594 6.62469505 -21.69934483 7.2716331 -23 8 C-19.7113084 3.22609284 -17.02274445 1.00857067 -11.42578125 -0.609375 C-7.4331691 -1.25230771 -3.97026797 -0.69322139 0 0 Z " fill="#476F9A" transform="translate(69,68)"/>
<path d="M0 0 C0.99 0.33 1.98 0.66 3 1 C3 1.99 3 2.98 3 4 C5.64 4 8.28 4 11 4 C11.33 4.66 11.66 5.32 12 6 C11.01 6.495 11.01 6.495 10 7 C10 8.32 10 9.64 10 11 C6.77788109 10.41861767 5.06332259 9.49498087 2.75 7.1875 C2.22921875 6.68605469 1.7084375 6.18460937 1.171875 5.66796875 C0 4 0 4 0 0 Z " fill="#1A5086" transform="translate(44,94)"/>
<path d="M0 0 C0.99 0 1.98 0 3 0 C2.5240307 4.99767765 1.12573658 8.07050258 -2 12 C-4.25 13.375 -4.25 13.375 -6 14 C-5.34 12.68 -4.68 11.36 -4 10 C-3.34 10 -2.68 10 -2 10 C-2.04125 8.906875 -2.0825 7.81375 -2.125 6.6875 C-2 3 -2 3 0 0 Z " fill="#356493" transform="translate(190,90)"/>
<path d="M0 0 C0 2 0 2 -1.375 3.625 C-3 5 -3 5 -5 5 C-5.20625 5.61875 -5.4125 6.2375 -5.625 6.875 C-7.54775888 9.84653645 -9.66594527 10.13024659 -13 11 C-10.55059663 6.23727122 -5.89630984 0 0 0 Z " fill="#2E5C90" transform="translate(108,62)"/>
<path d="M0 0 C0.99 0 1.98 0 3 0 C2.7834375 1.41152344 2.7834375 1.41152344 2.5625 2.8515625 C2.376875 4.09679687 2.19125 5.34203125 2 6.625 C1.814375 7.85476562 1.62875 9.08453125 1.4375 10.3515625 C1.04597484 13.6166027 0.91919076 16.71712451 1 20 C0.34 20.33 -0.32 20.66 -1 21 C-1.02710123 18.4374282 -1.04688771 15.87514635 -1.0625 13.3125 C-1.07087891 12.59126953 -1.07925781 11.87003906 -1.08789062 11.12695312 C-1.10543632 7.28444618 -0.93524221 3.73360474 0 0 Z " fill="#3C6796" transform="translate(70,130)"/>
<path d="M0 0 C1.67460535 0.2908364 3.33990013 0.63536688 5 1 C7.61481958 1.06774144 10.19979256 1.09500258 12.8125 1.0625 C13.50537109 1.05798828 14.19824219 1.05347656 14.91210938 1.04882812 C16.60811068 1.03713156 18.30406703 1.01919924 20 1 C15.05869197 4.29420535 8.48753549 4.57544336 2.65625 3.61328125 C0.75 3.0625 0.75 3.0625 -2 2 C-1.34 1.34 -0.68 0.68 0 0 Z " fill="#49709B" transform="translate(108,107)"/>
<path d="M0 0 C0.99 0 1.98 0 3 0 C3.061875 0.61875 3.12375 1.2375 3.1875 1.875 C3.828919 4.27761141 3.828919 4.27761141 6.5625 5.25 C7.366875 5.4975 8.17125 5.745 9 6 C9 6.99 9 7.98 9 9 C5.45529741 8.70460812 4.21784705 8.22373481 1.6875 5.625 C0 3 0 3 0 0 Z " fill="#356290" transform="translate(77,165)"/>
<path d="M0 0 C0.33 1.98 0.66 3.96 1 6 C-2.57575896 6 -4.05295935 4.91159393 -7 3 C-3.375 0 -3.375 0 0 0 Z " fill="#3E6894" transform="translate(155,116)"/>
<path d="M0 0 C1.65 0.33 3.3 0.66 5 1 C4.34 2.65 3.68 4.3 3 6 C2.01 6 1.02 6 0 6 C0 5.34 0 4.68 0 4 C-0.66 3.67 -1.32 3.34 -2 3 C-1.34 2.01 -0.68 1.02 0 0 Z " fill="#024481" transform="translate(162,98)"/>
<path d="M0 0 C2 3 2 3 3 6 C-0.20395416 6 -2.09399739 5.25664978 -5 4 C-3 1 -3 1 0 0 Z " fill="#115291" transform="translate(134,96)"/>
<path d="M0 0 C0.66 0.33 1.32 0.66 2 1 C1.88601335 2.62580966 1.75844341 4.25067157 1.625 5.875 C1.52058594 7.23238281 1.52058594 7.23238281 1.4140625 8.6171875 C1 11 1 11 -1 13 C-2.07310858 9.72814447 -1.89263102 7.57052408 -1.0625 4.25 C-0.86785156 3.45078125 -0.67320312 2.6515625 -0.47265625 1.828125 C-0.31667969 1.22484375 -0.16070312 0.6215625 0 0 Z " fill="#4F719E" transform="translate(141,82)"/>
<path d="M0 0 C1.32 0 2.64 0 4 0 C4.33 1.65 4.66 3.3 5 5 C3.02 5 1.04 5 -1 5 C-1.33 4.01 -1.66 3.02 -2 2 C-1.34 1.34 -0.68 0.68 0 0 Z " fill="#024686" transform="translate(59,69)"/>
<path d="M0 0 C3.2910841 3.60957611 4.54663921 6.12637153 5 11 C4.67 10.01 4.34 9.02 4 8 C1.99983534 6.79117904 1.99983534 6.79117904 0 6 C0 4.02 0 2.04 0 0 Z " fill="#496F99" transform="translate(188,74)"/>
<path d="M0 0 C0.66 0 1.32 0 2 0 C1.67 2.31 1.34 4.62 1 7 C0.01 7.33 -0.98 7.66 -2 8 C-2.33 6.68 -2.66 5.36 -3 4 C-2.01 4 -1.02 4 0 4 C0 2.68 0 1.36 0 0 Z " fill="#295888" transform="translate(154,165)"/>
<path d="M0 0 C0.99 0.33 1.98 0.66 3 1 C-1.75 5.875 -1.75 5.875 -4 7 C-4 5.35 -4 3.7 -4 2 C-2.68 2 -1.36 2 0 2 C0 1.34 0 0.68 0 0 Z " fill="#476D95" transform="translate(83,117)"/>
<path d="M0 0 C0.33 0.66 0.66 1.32 1 2 C0.01 2.495 0.01 2.495 -1 3 C-1.33 3.99 -1.66 4.98 -2 6 C-5.0625 7.1875 -5.0625 7.1875 -8 8 C-6.49776416 3.79373966 -3.71449966 2.26099979 0 0 Z " fill="#3B6790" transform="translate(86,123)"/>
<path d="M0 0 C0.66 0.33 1.32 0.66 2 1 C1.04956626 2.33897583 0.08940853 3.67105427 -0.875 5 C-1.40867187 5.7425 -1.94234375 6.485 -2.4921875 7.25 C-3.23855469 8.11625 -3.23855469 8.11625 -4 9 C-4.66 9 -5.32 9 -6 9 C-4.68775452 5.06326356 -3.08089673 2.77280706 0 0 Z " fill="#436C97" transform="translate(35,119)"/>
<path d="M0 0 C1.9375 0.75 1.9375 0.75 4 2 C4.75 4.125 4.75 4.125 5 6 C5.66 6 6.32 6 7 6 C6.67 6.66 6.34 7.32 6 8 C1.125 3.375 1.125 3.375 0 0 Z " fill="#477398" transform="translate(155,96)"/>
</svg>
